<svg width="793" height="745" viewBox="0 0 793 745" fill="none" xmlns="http://www.w3.org/2000/svg">
<path d="M445.07 207.82C422.974 192.371 396.677 189.361 369.404 190.983C355.763 191.795 341.846 193.768 328.056 195.941C324.62 196.483 321.192 197.037 317.779 197.589C307.48 199.253 297.309 200.897 287.399 202.122C239.366 208.058 194.708 223.249 151.028 243.954C142.78 247.864 134.269 251.624 125.705 255.408C110.102 262.301 94.3204 269.274 79.6176 277.376C56.7969 289.952 36.3656 305.35 22.8089 327.672C-4.35061 372.39 0.507495 429.232 7.33228 480.661C13.6268 528.094 26.7017 577.613 60.506 611.888C76.4332 628.037 96.9649 636.098 118.642 642.111C126.094 644.178 133.711 646.011 141.329 647.844C144.784 648.675 148.24 649.506 151.68 650.359C162.726 653.099 173.653 656.073 184.076 660.024C195.142 664.22 205.827 669.032 216.485 673.832C222.582 676.578 228.67 679.32 234.816 681.94C251.654 689.119 268.815 695.329 287.381 697.967C328.27 703.775 370.239 705.779 409.368 691.938C430.892 684.325 453.933 675.598 473.995 663.565C494.063 651.528 511.223 636.14 520.902 615.166C530.64 594.067 527.771 571.641 522.241 548.952C520.727 542.739 518.992 536.429 517.255 530.113C515.837 524.956 514.417 519.796 513.117 514.683C510.203 503.226 507.826 491.796 507.165 480.471C506.188 463.709 507.249 447.112 508.309 430.538C508.587 426.184 508.866 421.832 509.107 417.48C510.264 396.591 510.562 375.726 505.824 354.834C503.792 345.878 501.972 336.566 500.129 327.136C496.609 309.125 493.004 290.681 487.679 273.452C479.549 247.149 467.341 223.39 445.07 207.82Z" stroke="#D1DA4F" stroke-width="2"/>
<path d="M424.535 60.9407C397.579 61.4592 374.548 74.5052 353.456 91.8711C342.907 100.557 332.818 110.344 322.95 120.218C320.491 122.679 318.046 125.144 315.611 127.599C308.265 135.007 301.011 142.324 293.721 149.147C258.386 182.22 231.226 220.788 208.104 263.238C203.738 271.254 199.071 279.303 194.375 287.404C185.82 302.16 177.166 317.087 170.05 332.292C159.005 355.891 151.552 380.366 153.733 406.39C158.101 458.528 195.487 501.618 231.278 539.175C264.288 573.815 304.006 606.149 351.509 613.958C373.891 617.637 395.233 612.068 416.297 604.169C423.537 601.453 430.774 598.451 438.011 595.448C441.294 594.086 444.576 592.724 447.86 591.389C458.402 587.101 468.986 583.073 479.737 580.132C491.153 577.01 502.623 574.61 514.064 572.217C520.61 570.847 527.145 569.48 533.655 567.981C551.494 563.872 569.022 558.791 585.583 549.994C622.056 530.621 657.163 507.535 680.648 473.314C693.566 454.49 707.055 433.872 716.19 412.335C725.327 390.792 730.141 368.251 725.62 345.598C721.071 322.809 705.551 306.369 687.725 291.282C682.845 287.152 677.727 283.072 672.605 278.989C668.423 275.655 664.238 272.319 660.177 268.951C651.078 261.404 642.428 253.564 635.227 244.798C624.57 231.823 615.658 217.781 606.758 203.759C604.421 200.076 602.084 196.394 599.717 192.733C588.357 175.166 576.316 158.123 560.187 144.024C553.272 137.979 546.32 131.523 539.279 124.985C525.831 112.497 512.06 99.7091 497.613 88.9156C475.558 72.438 451.704 60.418 424.535 60.9407Z" stroke="white" stroke-width="2"/>
<path fill-rule="evenodd" clip-rule="evenodd" d="M594.792 204.726C646.261 194.04 700.953 182.319 749.287 202.984C800.728 224.979 851.158 265.84 864.692 320.124C878.054 373.715 829.572 421.533 817.197 475.36C806.212 523.14 823.828 577.409 796.226 617.927C767.736 659.747 714.925 674.104 668.34 693.865C615.928 716.098 562.661 754.807 507.591 740.362C452.411 725.889 418.76 670.108 389.981 620.853C364.702 577.588 363.336 527.247 354.278 477.964C344.801 426.405 309.974 370.746 335.605 325.016C361.471 278.865 428.683 281.857 476.672 259.585C516.865 240.932 551.407 213.733 594.792 204.726Z" stroke="#8A9220"/>
</svg>
